
<svg width="1000" height="1000" viewBox="0 0 1000 1000" fill="none" xmlns="http://www.w3.org/2000/svg">
<rect width="1000" height="1000" rx="500" fill="white"/>
<g clip-path="url(#clip0_59_333)">
<path d="M620.685 475.162H708.904C722.079 475.162 723.255 476.339 719.961 489.523C713.374 514.95 708.904 540.848 692.437 562.744C677.381 582.991 658.796 594.057 632.683 593.35C595.277 593.586 555.284 593.586 517.409 592.644C463.301 590.29 436.482 623.486 421.19 661.862C417.191 671.75 415.309 682.109 411.31 691.998C399.077 722.84 381.433 736.26 345.674 737.437C310.386 738.614 272.746 737.201 236.282 737.437C222.637 737.437 220.52 735.553 223.813 722.84C228.989 702.828 233.459 682.345 240.516 662.804C252.044 630.784 268.747 619.954 302.623 619.719C328.971 619.484 355.084 619.013 381.433 619.484C411.545 619.954 434.835 607.241 450.597 582.52C459.066 569.1 464.477 553.797 470.829 539.2C473.887 532.373 475.299 524.839 478.122 518.011C491.766 485.756 508.234 474.926 543.051 475.162C568.929 475.162 594.807 475.162 620.685 475.162Z" fill="#1E1E1E"/>
<path d="M620.449 381.458C603.982 381.458 587.514 381.458 571.046 381.458C520.232 381.458 486.826 407.121 472.711 455.856C469.182 468.099 464.477 480.577 457.89 491.407C444.48 513.773 424.484 525.545 397.43 525.309C361.436 524.839 325.207 525.074 289.214 525.309C279.098 525.309 275.569 522.484 278.627 512.125C284.744 491.407 288.978 470.218 296.036 449.97C306.622 420.07 323.796 408.534 355.555 407.827C377.198 407.356 398.606 408.063 420.249 407.592C432.012 407.356 443.775 407.121 455.302 404.767C479.533 399.822 499.059 387.344 510.116 364.507C519.526 345.201 528.466 325.425 536.464 305.413C548.227 275.277 569.87 261.386 601.629 261.622C656.208 261.857 710.551 261.622 765.13 261.622C772.423 261.622 780.186 262.328 777.363 271.981C768.894 299.527 764.424 328.721 743.722 351.323C725.843 370.864 703.964 381.223 677.145 381.223C658.09 381.458 639.27 381.458 620.449 381.458Z" fill="#1E1E1E"/>
<path d="M336.97 345.201C333.912 345.201 331.559 342.141 332.5 339.315C332.971 337.667 333.441 336.255 333.912 334.607C337.676 321.422 340.734 307.296 344.733 294.112C350.615 274.806 362.142 262.799 382.138 261.857C410.604 260.444 439.07 262.564 467.77 261.857C473.416 261.622 478.827 262.328 476.475 270.097C471.534 286.813 467.535 304.236 460.713 320.245C454.361 335.549 441.422 344.966 424.013 345.201C395.783 345.437 367.553 345.437 336.97 345.201Z" fill="#1890FF"/>
</g>
<defs>
<clipPath id="clip0_59_333">
<rect width="555.667" height="476.286" fill="white" transform="translate(222.167 261.857)"/>
</clipPath>
</defs>
</svg>
