<svg xmlns="http://www.w3.org/2000/svg" viewBox="0 0 1131.65 981.39" class="sc-eDPFhE KBJnm"><path d="M1124.61,429.16C1059.97,332.39,900.22,123.88,655.37,1.86c-17.09-8.51-32.38,14.21-18.12,26.9,48.1,42.77,104.87,101.66,146.01,170.42,0,0-235.6-68.79-481.03-24.31-20.7,3.75-22.39,32.83-2.28,39,81.68,25.09,210.84,74.08,296.6,152.34,0,0-449.24,215.36-594.53,578.35-9.49,23.72,16.45,46,38.43,32.98,178.57-105.69,703.49-404.6,1058.88-484.87,28.39-6.41,41.46-39.31,25.29-63.51ZM830.02,467.29c-24.52,0-44.4-19.88-44.4-44.4s19.88-44.4,44.4-44.4,44.4,19.88,44.4,44.4-19.88,44.4-44.4,44.4Z" fill="white"></path></svg>