<?xml version="1.0" encoding="UTF-8"?>
<svg xmlns="http://www.w3.org/2000/svg" version="1.1" width="50" height="50" fill="none" viewBox="0 0 1024 1024">
  <defs>
    <style>
      .cls-1 {
        fill: #fff;
      }

      .cls-2 {
        fill: #0245f5;
      }
    </style>
  </defs>
  <!-- Generator: Adobe Illustrator 28.6.0, SVG Export Plug-In . SVG Version: 1.2.0 Build 709)  -->
  <g>
    <g id="Layer_1">
      <g>
        <g>
          <path class="cls-2" d="M690.5,501.9c144.2-2.6,241.6-30,289.4-81.5,12.2-13.2,20.6-27.4,26.4-41.9-16.1-59.6-42.6-114.9-77.5-163.8-3.1,35.2-14,73.7-45.4,107.5-54.7,58.9-156.8,88.9-312.1,91.7-244.1,4.4-444.5,69.8-570.7,124.5,2.3,45.1,10.4,88.6,23.7,129.8,23.9-12.2,50.6-24.9,80-37.8,128.6-56.2,334.8-124.1,586.2-128.6Z"/>
          <path class="cls-2" d="M929.9,741.3c14-.3,27.5-.7,40.6-1.5,17.7-35.6,31.5-73.6,40.5-113.3-52.9,16.5-119.3,25.3-200.3,26.8-246.2,4.4-448.1,70.9-574.1,126-46.9,20.5-87,40.9-119.4,58.9,29.4,35.5,63.5,67,101.4,93.5,33.6-18.7,75.5-40.1,125-61.8,128.6-56.2,334.8-124.1,586.2-128.6Z"/>
          <path class="cls-2" d="M356.4,899c-41.3,18-77.3,36-107.5,52.3,76.9,46.1,166.8,72.7,263,72.7,187.7,0,351.7-101,440.9-251.6-7.3.3-14.8.5-22.3.6-246.2,4.4-448.1,70.9-574.1,126Z"/>
          <path class="cls-2" d="M860.2,300.7c35.8-38.6,39.1-85.8,37.8-125C804.2,68,666,0,512,0,231.8,0,4.2,225,0,504.2c129.4-54.8,329.1-117.6,570.7-122,144.2-2.6,241.6-30,289.4-81.5Z"/>
          <path class="cls-2" d="M810.2,621.6c86.2-1.5,155.6-12,207.7-31.1,3.9-25.6,6-51.8,6-78.5s-2.5-58.4-7.3-86.5c-4,5.6-8.5,11.1-13.5,16.5-54.7,58.9-156.8,88.9-312.1,91.7-246.2,4.4-448.1,70.9-574.1,126-30.3,13.2-57.7,26.4-82,38.9,16,40.9,37.1,79.2,62.6,114.3,33.9-18.9,76.2-40.6,126.4-62.5,128.6-56.2,334.8-124.1,586.2-128.6Z"/>
        </g>
      </g>
    </g>
  </g>
</svg>