<svg width="500" height="50" viewBox="0 0 500 150" fill="none" xmlns="http://www.w3.org/2000/svg"><path fill-rule="evenodd" clip-rule="evenodd" d="M0 6.60777C0 2.9584 2.9584 0 6.60777 0C10.2571 0 13.2155 2.9584 13.2155 6.60777V13.2862C13.2155 14.262 12.4245 15.053 11.4488 15.053C10.473 15.053 9.68198 14.262 9.68198 13.2862V6.60777C9.68198 4.90994 8.30561 3.53357 6.60777 3.53357C4.90994 3.53357 3.53357 4.90994 3.53357 6.60777V17.8092C3.53357 18.785 2.74255 19.576 1.76678 19.576C0.791016 19.576 0 18.785 0 17.8092V6.60777Z" fill="#6AE6B9"></path><rect x="20.9191" y="7.56201" width="5.44169" height="3.53357" rx="1.76678" fill="white"></rect><path fill-rule="evenodd" clip-rule="evenodd" d="M32.5787 6.60777C32.5787 2.9584 29.6203 0 25.971 0C22.3216 0 19.3632 2.9584 19.3632 6.60777V13.2862C19.3632 14.262 20.1542 15.053 21.13 15.053C22.1057 15.053 22.8968 14.262 22.8968 13.2862V6.60777C22.8968 4.90994 24.2731 3.53357 25.971 3.53357C27.6688 3.53357 29.0452 4.90994 29.0452 6.60777V13.2862C29.0452 14.262 29.8362 15.053 30.812 15.053C31.7877 15.053 32.5787 14.262 32.5787 13.2862V6.60777Z" fill="#6AE6B9"></path><path fill-rule="evenodd" clip-rule="evenodd" d="M51.9434 6.60777C51.9434 2.9584 48.985 0 45.3356 0C41.6862 0 38.7278 2.9584 38.7278 6.60777V13.2862C38.7278 14.262 39.5188 15.053 40.4946 15.053C41.4704 15.053 42.2614 14.262 42.2614 13.2862V6.60777C42.2614 4.90994 43.6378 3.53357 45.3356 3.53357C47.0334 3.53357 48.4098 4.90994 48.4098 6.60777V17.8092C48.4098 18.785 49.2008 19.576 50.1766 19.576C51.1523 19.576 51.9434 18.785 51.9434 17.8092V6.60777Z" fill="#6AE6B9"></path><path fill-rule="evenodd" clip-rule="evenodd" d="M9.68073 13.3922C9.68073 17.0416 12.6391 20 16.2885 20C19.9379 20 22.8963 17.0416 22.8963 13.3922V6.71379H19.3627V13.3922C19.3627 15.0901 17.9863 16.4664 16.2885 16.4664C14.5907 16.4664 13.2143 15.0901 13.2143 13.3922V6.71379H9.68073V13.3922Z" fill="#6AE6B9"></path><path fill-rule="evenodd" clip-rule="evenodd" d="M29.046 13.3922C29.046 17.0416 32.0044 20 35.6538 20C39.3032 20 42.2616 17.0416 42.2616 13.3922V6.71379H38.728V13.3922C38.728 15.0901 37.3516 16.4664 35.6538 16.4664C33.956 16.4664 32.5796 15.0901 32.5796 13.3922V6.71379H29.046V13.3922Z" fill="#6AE6B9"></path></svg>